<svg viewBox="0 0 96 96" data-name="Your Icons" id="Your_Icons" xmlns="http://www.w3.org/2000/svg" fill="#000000"><g id="SVGRepo_bgCarrier" stroke-width="0"></g><g id="SVGRepo_tracerCarrier" stroke-linecap="round" stroke-linejoin="round"></g><g id="SVGRepo_iconCarrier"><defs><style>.cls-1{fill:#231f20;}</style></defs><title></title><path class="cls-1" d="M73.46,40.83H64.1v9H76.6Zm-8.36,1h7.65l2.44,7H65.1Z"></path><path class="cls-1" d="M72.42,60.63a3,3,0,1,0,3,3A3,3,0,0,0,72.42,60.63Zm0,5.07a2,2,0,1,1,2-2A2,2,0,0,1,72.42,65.7Z"></path><path class="cls-1" d="M72.42,57.25a6.42,6.42,0,1,0,6.41,6.42A6.43,6.43,0,0,0,72.42,57.25Zm0,11.83a5.42,5.42,0,1,1,5.41-5.41A5.42,5.42,0,0,1,72.42,69.08Z"></path><path class="cls-1" d="M24.42,60.63a3,3,0,1,0,3,3A3,3,0,0,0,24.42,60.63Zm0,5.07a2,2,0,1,1,2-2A2,2,0,0,1,24.42,65.7Z"></path><path class="cls-1" d="M24.42,57.25a6.42,6.42,0,1,0,6.41,6.42A6.43,6.43,0,0,0,24.42,57.25Zm0,11.83a5.42,5.42,0,1,1,5.41-5.41A5.42,5.42,0,0,1,24.42,69.08Z"></path><path class="cls-1" d="M83,48.79H80.63l-3.77-9.54a2.49,2.49,0,0,0-2.33-1.58H61.29v-7.5a2.51,2.51,0,0,0-2.5-2.5H15a2.5,2.5,0,0,0-2.5,2.5v31.5a2.5,2.5,0,0,0,2.5,2.5H16.9a.51.51,0,0,0,.5-.5.5.5,0,0,0-.5-.5H15a1.5,1.5,0,0,1-1.5-1.5V30.17a1.5,1.5,0,0,1,1.5-1.5H58.79a1.5,1.5,0,0,1,1.5,1.5v33H31.94a.5.5,0,0,0-.5.5.5.5,0,0,0,.5.5h33a.51.51,0,0,0,.5-.5.5.5,0,0,0-.5-.5H61.29V38.67H74.53a1.5,1.5,0,0,1,1.4.95l4,10.17H83a1.5,1.5,0,0,1,1.5,1.5v2.13H83.08a1.5,1.5,0,0,0-1.5,1.5v1.25a2.5,2.5,0,0,0,2.5,2.5h.46v3a1.5,1.5,0,0,1-1.5,1.5h-3.1a.5.5,0,0,0-.5.5.5.5,0,0,0,.5.5H83a2.5,2.5,0,0,0,2.5-2.5V51.29A2.5,2.5,0,0,0,83,48.79Zm1.5,8.88h-.46a1.5,1.5,0,0,1-1.5-1.5V54.92a.5.5,0,0,1,.5-.5h1.46Z"></path><path class="cls-1" d="M47.31,44.17A9.36,9.36,0,1,0,38,53.53,9.36,9.36,0,0,0,47.31,44.17Zm-17.71,0A8.36,8.36,0,1,1,38,52.53,8.37,8.37,0,0,1,29.6,44.17Z"></path><path class="cls-1" d="M40,50.17v-4h4v-4H40v-4H36v4H32v4h4v4Zm-7-5v-2h4v-4h2v4h4v2H39v4H37v-4Z"></path></g></svg>