<svg height="200px" width="200px" version="1.1" id="Layer_1" xmlns="http://www.w3.org/2000/svg" xmlns:xlink="http://www.w3.org/1999/xlink" viewBox="-135.94 -135.94 775.35 775.35" xml:space="preserve" fill="#000000"><g id="SVGRepo_bgCarrier" stroke-width="0"></g><g id="SVGRepo_tracerCarrier" stroke-linecap="round" stroke-linejoin="round"></g><g id="SVGRepo_iconCarrier"> <g transform="translate(1 5)"> <g> <path style="fill:#ECF4F7;" d="M498.2,323.533V391.8h-34.133c0-28.16-23.04-51.2-51.2-51.2c-28.16,0-51.2,23.04-51.2,51.2h-34.133 V238.2H395.8h68.267l25.6,25.6c8.533,8.533,8.533,25.6,8.533,25.6V323.533z"></path> <path style="fill:#ECF4F7;" d="M3.267,323.533V187v-85.333c0-18.773,15.36-34.133,34.133-34.133H191h51.2h34.133V187v34.133 c0,11.093,6.827,17.067,17.067,17.067h34.133v153.6h-153.6c0-28.16-23.04-51.2-51.2-51.2s-51.2,23.04-51.2,51.2H37.4 c-18.773,0-34.133-15.36-34.133-34.133V323.533z"></path> </g> <g> <path style="fill:#AAB1BA;" d="M395.8,238.2h-68.267H293.4c-10.24,0-17.067-5.973-17.067-17.067V187V67.533h128 c18.773,0,34.133,15.36,34.133,34.133l25.6,136.533H395.8z"></path> <path style="fill:#AAB1BA;" d="M412.867,340.6c28.16,0,51.2,23.04,51.2,51.2c0,28.16-23.04,51.2-51.2,51.2 c-28.16,0-51.2-23.04-51.2-51.2C361.667,363.64,384.707,340.6,412.867,340.6z M122.733,340.6c28.16,0,51.2,23.04,51.2,51.2 c0,28.16-23.04,51.2-51.2,51.2s-51.2-23.04-51.2-51.2C71.533,363.64,94.573,340.6,122.733,340.6z"></path> </g> <path style="fill:#ECF4F7;" d="M412.867,374.733c9.387,0,17.067,7.68,17.067,17.067s-7.68,17.067-17.067,17.067 S395.8,401.187,395.8,391.8S403.48,374.733,412.867,374.733z M122.733,374.733c9.387,0,17.067,7.68,17.067,17.067 s-7.68,17.067-17.067,17.067s-17.067-7.68-17.067-17.067S113.347,374.733,122.733,374.733z"></path> <polygon style="fill:#FF7474;" points="191,169.933 191,204.067 156.867,204.067 156.867,238.2 122.733,238.2 122.733,204.067 88.6,204.067 88.6,169.933 122.733,169.933 122.733,135.8 156.867,135.8 156.867,169.933 "></polygon> <path style="fill:#80D6FA;" d="M242.2,67.533H191v-25.6c0-13.653,11.947-25.6,25.6-25.6c14.507,0,25.6,11.093,25.6,25.6V67.533z"></path> </g> <path style="fill:#51565F;" d="M499.2,486.4H362.667c-2.56,0-4.267-1.707-4.267-4.267s1.707-4.267,4.267-4.267H499.2 c2.56,0,4.267,1.707,4.267,4.267S501.76,486.4,499.2,486.4z M328.533,486.4h-17.067c-2.56,0-4.267-1.707-4.267-4.267 s1.707-4.267,4.267-4.267h17.067c2.56,0,4.267,1.707,4.267,4.267S331.093,486.4,328.533,486.4z M260.267,486.4h-85.333 c-2.56,0-4.267-1.707-4.267-4.267s1.707-4.267,4.267-4.267h85.333c2.56,0,4.267,1.707,4.267,4.267S262.827,486.4,260.267,486.4z M123.733,486.4H4.267c-2.56,0-4.267-1.707-4.267-4.267s1.707-4.267,4.267-4.267h119.467c2.56,0,4.267,1.707,4.267,4.267 S126.293,486.4,123.733,486.4z M413.867,452.267c-30.72,0-55.467-24.747-55.467-55.467s24.747-55.467,55.467-55.467 c29.013,0,52.907,22.187,55.467,51.2h25.6V332.8h-12.8c-2.56,0-4.267-1.707-4.267-4.267c0-2.56,1.707-4.267,4.267-4.267h12.8V294.4 c0,0,0-15.36-7.68-22.187l-24.747-24.747h-66.56l0,0h-102.4c-12.8,0-21.333-8.533-21.333-21.333v-29.867H225.28 c-2.56,0-4.267-1.707-4.267-4.267c0-2.56,1.707-4.267,4.267-4.267h46.933v-115.2c0-2.56,1.707-4.267,4.267-4.267h128 c21.333,0,38.4,17.067,38.4,38.4l25.6,134.827l24.747,24.747c9.387,9.387,9.387,28.16,9.387,29.013v102.4 c0,2.56-1.707,4.267-4.267,4.267H468.48C466.773,430.08,442.88,452.267,413.867,452.267z M413.867,349.867 c-25.6,0-46.933,21.333-46.933,46.933s21.333,46.933,46.933,46.933c25.6,0,46.933-21.333,46.933-46.933 S439.467,349.867,413.867,349.867z M403.627,238.933h56.32L435.2,107.52c0-17.067-13.653-30.72-29.867-30.72H281.6v149.333 c0,8.533,4.267,12.8,12.8,12.8h99.84l16.213-31.573c0.853-1.707,3.413-2.56,5.973-1.707c1.707,0.853,2.56,2.56,2.56,3.413 c0,0.853,0,1.707-0.853,1.707L403.627,238.933z M123.733,452.267c-30.72,0-55.467-24.747-55.467-55.467s24.747-55.467,55.467-55.467 c29.013,0,52.907,22.187,55.467,51.2h145.067v-115.2c0-2.56,1.707-4.267,4.267-4.267s4.267,1.707,4.267,4.267V396.8 c0,2.56-1.707,4.267-4.267,4.267H179.2C176.64,430.08,152.747,452.267,123.733,452.267z M123.733,349.867 c-25.6,0-46.933,21.333-46.933,46.933s21.333,46.933,46.933,46.933s46.933-21.333,46.933-46.933S149.333,349.867,123.733,349.867z M413.867,418.133c-11.947,0-21.333-9.387-21.333-21.333s9.387-21.333,21.333-21.333c11.947,0,21.333,9.387,21.333,21.333 S425.813,418.133,413.867,418.133z M413.867,384c-6.827,0-12.8,5.973-12.8,12.8s5.973,12.8,12.8,12.8s12.8-5.973,12.8-12.8 S420.693,384,413.867,384z M123.733,418.133c-11.947,0-21.333-9.387-21.333-21.333s9.387-21.333,21.333-21.333 c11.947,0,21.333,9.387,21.333,21.333S135.68,418.133,123.733,418.133z M123.733,384c-6.827,0-12.8,5.973-12.8,12.8 s5.973,12.8,12.8,12.8c6.827,0,12.8-5.973,12.8-12.8S130.56,384,123.733,384z M38.4,401.067C17.067,401.067,0,384,0,362.667v-256 c0-21.333,17.067-38.4,38.4-38.4h149.333V46.933c0-16.213,13.653-29.867,29.867-29.867c17.067,0,29.867,12.8,29.867,29.867v25.6 c0,2.56-1.707,4.267-4.267,4.267H38.4c-16.213,0-29.867,13.653-29.867,29.867v81.067h46.933c2.56,0,4.267,1.707,4.267,4.267 c0,2.56-1.707,4.267-4.267,4.267H8.533v128h12.8c2.56,0,4.267,1.707,4.267,4.267c0,2.56-1.707,4.267-4.267,4.267h-12.8v29.867 c0,17.067,12.8,29.867,29.867,29.867c2.56,0,4.267,1.707,4.267,4.267S40.96,401.067,38.4,401.067z M196.267,68.267h42.667V46.933 c0-11.947-9.387-21.333-21.333-21.333c-11.947,0-21.333,9.387-21.333,21.333V68.267z M157.867,247.467h-34.133 c-2.56,0-4.267-1.707-4.267-4.267v-29.867H89.6c-2.56,0-4.267-1.707-4.267-4.267v-34.133c0-2.56,1.707-4.267,4.267-4.267h29.867 V140.8c0-2.56,1.707-4.267,4.267-4.267h34.133c2.56,0,4.267,1.707,4.267,4.267v29.867H192c2.56,0,4.267,1.707,4.267,4.267v34.133 c0,2.56-1.707,4.267-4.267,4.267h-29.867V243.2C162.133,245.76,160.427,247.467,157.867,247.467z M128,238.933h25.6v-29.867 c0-2.56,1.707-4.267,4.267-4.267h29.867v-25.6h-29.867c-2.56,0-4.267-1.707-4.267-4.267v-29.867H128v29.867 c0,2.56-1.707,4.267-4.267,4.267H93.867v25.6h29.867c2.56,0,4.267,1.707,4.267,4.267V238.933z"></path> </g></svg>